HIERARCHY
ROOT Hips
{
  OFFSET -320.828 86.2331 294.766
  CHANNELS 6 Xposition Yposition Zposition Zrotation Xrotation Yrotation
  JOINT ToSpine
  {
    OFFSET -0.0105055 1.38907 -7.13956
    CHANNELS 3 Zrotation Xrotation Yrotation
    JOINT Spine
    {
      OFFSET 0.0105055 10 1
      CHANNELS 3 Zrotation Xrotation Yrotation
      JOINT Spine1
      {
        OFFSET 0 12 1.60637
        CHANNELS 3 Zrotation Xrotation Yrotation
        JOINT Neck
        {
          OFFSET 0 27 2.26658
          CHANNELS 3 Zrotation Xrotation Yrotation
          JOINT Head
          {
            OFFSET 0 9 2.12705
            CHANNELS 3 Zrotation Xrotation Yrotation
            End Site
            {
              OFFSET 0 11 2
            }
          }
        }
        JOINT LeftShoulder
        {
          OFFSET 8 19.6109 2.86452
          CHANNELS 3 Zrotation Xrotation Yrotation
          JOINT LeftArm
          {
            OFFSET 12 1 0.681055
            CHANNELS 3 Zrotation Xrotation Yrotation
            JOINT LeftForeArm
            {
              OFFSET 19 0 -1.52608
              CHANNELS 3 Zrotation Xrotation Yrotation
              JOINT LeftHand
              {
                OFFSET 23 0 0
                CHANNELS 3 Zrotation Xrotation Yrotation
                End Site
                {
                  OFFSET 10 0 0
                }
              }
            }
          }
        }
        JOINT RightShoulder
        {
          OFFSET -8 19.6109 2.86452
          CHANNELS 3 Zrotation Xrotation Yrotation
          JOINT RightArm
          {
            OFFSET -12 1 0.681055
            CHANNELS 3 Zrotation Xrotation Yrotation
            JOINT RightForeArm
            {
              OFFSET -19 0 -1.52608
              CHANNELS 3 Zrotation Xrotation Yrotation
              JOINT RightHand
              {
                OFFSET -23 0 0
                CHANNELS 3 Zrotation Xrotation Yrotation
                End Site
                {
                  OFFSET -10 0 0
                }
              }
            }
          }
        }
      }
    }
  }
  JOINT LeftUpLeg
  {
    OFFSET 9 -7.17245 0
    CHANNELS 3 Zrotation Xrotation Yrotation
    JOINT LeftLeg
    {
      OFFSET 0 -44.1113 0
      CHANNELS 3 Zrotation Xrotation Yrotation
      JOINT LeftFoot
      {
        OFFSET 0 -36.1829 0
        CHANNELS 3 Zrotation Xrotation Yrotation
        JOINT LeftToeBase
        {
          OFFSET 0 -4.84184 13
          CHANNELS 3 Zrotation Xrotation Yrotation
          End Site
          {
            OFFSET 0 1 6
          }
        }
      }
    }
  }
  JOINT RightUpLeg
  {
    OFFSET -9 -7.17245 0
    CHANNELS 3 Zrotation Xrotation Yrotation
    JOINT RightLeg
    {
      OFFSET 0 -44.0551 0
      CHANNELS 3 Zrotation Xrotation Yrotation
      JOINT RightFoot
      {
        OFFSET 0 -36.1469 0
        CHANNELS 3 Zrotation Xrotation Yrotation
        JOINT RightToeBase
        {
          OFFSET 0 -4.92256 13
          CHANNELS 3 Zrotation Xrotation Yrotation
          End Site
          {
            OFFSET 0 1 6
          }
        }
      }
    }
  }
}
MOTION
Frames:	19
Frame Time:	0.0333333
-3.58678 111.381 0.309706 -2.74014 -3.71126 140.567 0 0 0 6.30157 -7.65206 1.18527 -2.88565 9.65533 1.04633 15.1207 32.3999 -8.19689 -6.86199 -3.58805 1.41345 14.1017 -0.228847 -2.42075 2.32195 -43.0329 -64.7286 4.25432 -16.1459 4.77404 -6.5828 0.421158 -7.31149 -16.9022 0.884098 -17.4767 2.29172 -42.0047 51.622 -2.27264 -17.0874 -1.48676 2.51299 0.202206 9.21142 8.16597 4.16837 3.7126 0.646926 61.3954 -25.172 8.24999 17.8936 -1.3321 1.03555 -11.5584 -1.93516 -2.29681 4.18402 -12.4273 -0.827515 84.4733 6.16682 -16.8114 3.33217 0.452882 4.61495 -18.0142 -6.88145 
0.820212 113.266 -3.4376 -3.50468 -3.25954 139.675 0 0 0 4.15662 -3.20869 0.953519 -0.875663 9.79327 0.18278 14.2408 34.5226 -7.5033 -7.03534 -4.89084 1.85087 13.6702 -0.158377 -0.954183 11.2762 -36.4903 -48.5914 3.22371 -19.4759 4.89109 -6.01701 0.382778 -7.27256 -13.6919 0.48143 -16.5963 -2.14176 -37.5709 35.4652 -1.33028 -22.182 0.829471 2.05519 0.166778 9.17055 7.69035 -3.33224 8.13868 0.481054 76.2094 -17.5264 7.72755 10.235 -0.649721 0.992019 -9.83985 -2.17284 -5.25809 -6.81329 -12.4305 178.723 78.617 -179.132 -21.7006 -3.33111 -0.667305 4.92628 -19.9445 -8.67459 
4.3883 113.727 -6.49638 -3.87517 -3.8928 139.559 0 0 0 3.94153 3.93428 0.13269 0.58014 9.22803 -0.703134 13.1523 33.622 -6.49234 -7.59457 -5.31677 2.25102 12.0302 -0.0820873 -0.631149 17.6745 -24.3976 -32.3755 1.64285 -19.6492 4.6944 -7.3271 0.400602 -6.302 -7.9237 -0.128196 -12.0069 -7.25264 -30.2573 17.4707 0.206335 -22.3858 4.4661 1.23387 0.0909443 8.461 7.29133 -14.5802 10.5078 -12.1525 89.6333 2.70684 13.6659 -0.302544 0.0744101 0.942224 -8.33044 -2.34354 -7.27286 -20.5225 -12.65 -179.94 68.0905 -177.602 -29.0473 -8.47618 -2.177 5.11449 -21.0838 -9.21598 
7.88498 112.972 -9.17291 -5.576 -3.96283 140.054 0 0 0 2.53356 12.1636 -0.499952 1.24489 7.62779 -0.970381 13.7968 32.5047 -6.78775 -8.50702 -7.71888 2.18226 11.0587 -0.0813184 -2.4975 19.7182 -4.79949 -21.3205 -1.22615 -21.635 3.94988 -8.91063 0.414816 -5.30428 -4.64919 -0.0718854 -5.09546 -4.28725 -16.6037 2.21961 1.21077 -22.831 4.92656 2.92917 0.220364 8.60838 5.172 -28.1488 11.9369 -179.592 81.9286 172.915 20.144 -8.73775 1.5122 1.14047 -6.66438 -3.82954 -10.4944 -35.2225 -13.269 -180 66.4369 -176.816 -30.9121 -12.7932 -3.54497 5.35403 -21.9153 -8.23592 
11.8103 111.143 -11.7048 -6.90746 -4.16903 141.209 0 0 0 1.53165 20.0211 -0.977432 1.46461 5.86808 -0.960114 14.5299 28.5591 -6.86974 -8.70884 -7.93116 2.08917 9.9117 0.0052309 -4.9008 16.6073 14.8993 -16.3527 -3.85256 -28.6536 3.87801 -8.45529 0.42589 -5.75494 -1.08726 0.307555 0.599774 5.75865 -10.0001 -5.88153 1.06548 -20.6441 3.87686 3.27666 0.247888 8.64757 3.39407 -41.9295 12.6376 -179.981 79.6717 172.432 21.0952 -13.5 2.52386 1.06001 -6.00634 -3.56961 -13.6007 -47.537 -15.7168 179.311 74.4423 178.71 -31.4094 -16.1748 -4.57079 5.15772 -21.0895 -8.72131 
16.2872 108.315 -14.9484 -7.16399 -5.493 142.496 0 0 0 2.95752 26.6553 -1.38197 2.18399 4.18835 -0.611718 13.8043 23.7342 -6.37861 -8.94274 -7.79245 1.70116 4.43968 0.553352 -8.76129 11.5082 25.5473 -11.2802 -5.22389 -32.7494 2.91845 -8.23042 0.378613 -5.26759 3.78658 0.8583 3.80763 13.8665 -3.65671 -9.4821 1.69788 -17.1788 3.97875 3.09505 0.242012 8.95522 2.48703 -53.5704 13.1642 179.735 84.298 170.909 20.6575 -16.6395 3.04028 0.808726 -6.43378 -2.10254 -15.7704 -55.5353 -19.0002 -168.671 89.3185 162.179 -29.8693 -17.338 -4.67526 4.83689 -19.0136 -6.52038 
21.6312 105.027 -19.3028 -7.48367 -6.4145 142.839 0 0 0 4.24196 32.2655 -1.69838 2.46136 3.75848 -0.0229942 12.6127 17.6236 -5.53222 -8.85396 -7.90074 1.41422 0.101548 1.15755 -10.3786 1.3565 25.1447 -6.6766 -4.45983 -29.0633 2.48305 -7.25222 0.358183 -5.64309 7.57802 1.53799 6.7049 22.2042 2.19455 -10.7728 2.74727 -14.9751 5.0938 2.39039 0.194762 9.30067 1.45959 -60.8371 13.8444 0.363484 85.1569 -12.8858 17.2347 -19.8785 3.04414 0.490848 0.147479 -2.05014 -16.7334 -57.8846 -21.0805 -1.17232 70.9865 0.00346049 -25.2704 -13.2425 -2.97488 4.31205 -16.7227 -7.97472 
27.826 100.744 -24.5502 -8.61476 -7.59077 141.743 0 0 0 3.90103 35.2959 -1.71986 3.15239 4.53597 0.473885 8.41992 11.9669 -2.93383 -6.65159 -6.62594 1.49033 -6.11053 1.89235 -10.0934 -6.91678 21.9259 -3.82937 -3.99933 -25.7636 2.99816 -7.07418 0.354228 -5.71892 9.09358 2.52773 11.6619 31.1311 1.88036 -12.3003 2.99452 -14.7618 6.73867 2.12337 0.171554 9.23121 2.43926 -65.1912 17.2118 0.0230054 71.1302 -16.0251 13.4917 -19.053 2.28847 0.0834344 1.1325 -0.632741 -15.1902 -57.3013 -21.8086 0.251616 50.3057 8.28977 -25.0067 -7.62636 -1.68687 4.63457 -18.4174 -8.39742 
34.4774 94.9937 -30.2632 -9.78826 -9.08663 140.321 0 0 0 3.20133 34.7173 -1.02135 2.43089 5.13898 1.13911 9.46411 11.0018 -3.1183 -7.10676 -6.07061 1.7841 -8.71622 2.21743 -10.126 -16.496 20.4753 -5.26137 -4.29573 -29.5917 5.43411 -7.59101 0.381638 -5.78341 15.8405 3.79027 13.1747 33.7362 3.54972 -11.0001 4.18173 -18.6405 6.92638 2.50062 0.203919 9.33185 5.44891 -68.1828 21.3202 -0.0141705 58.1355 -19.5834 11.3284 -14.3869 1.42767 0.371057 -4.03947 -0.533127 -11.796 -57.0012 -19.9796 0.102204 39.4093 9.65793 -25.5726 -5.58261 -1.27656 4.46308 -17.5306 -8.35909 
40.9752 87.9091 -35.9614 -7.72835 -8.90627 138.535 0 0 0 2.66724 34.1802 0.464723 3.30232 6.09504 0.848105 8.01205 11.4701 -1.71615 -5.71873 -5.05784 2.46653 -12.1541 2.53424 -9.68887 -24.5385 19.7946 -4.53646 -5.1159 -28.6264 5.18565 -7.90107 0.278267 -3.92728 21.4704 4.8956 13.9395 35.4679 2.1472 -8.67288 4.47782 -21.138 6.76828 2.85916 0.219233 8.7683 10.5838 -67.8524 22.8837 -0.0665171 51.1657 -23.0231 11.0576 -13.4469 1.27967 0.344918 -5.11832 -0.0594523 -5.00086 -57.0847 -10.2615 0.0945642 44.6685 3.51086 -23.9925 -2.46806 -0.517647 4.74239 -18.9887 -7.91679 
46.1167 80.5576 -40.7651 -3.3278 -6.90534 134.983 0 0 0 3.82938 36.3129 1.73821 1.92387 4.63687 1.65352 5.82582 13.9857 -0.467872 -5.22357 -6.52885 2.85455 -22.3029 3.45657 -8.48433 -20.9955 26.0302 -8.52485 -7.42293 -34.1415 5.45911 -6.95997 0.11616 -1.89897 25.8081 6.24806 15.8558 35.8307 3.00702 -4.81308 3.29148 -16.1718 2.24117 2.77424 0.192159 7.91207 17.1118 -65.5554 23.6495 -0.0210087 50.4961 -23.2087 9.96724 -6.14032 0.72875 0.341303 -3.3546 -0.556123 3.65956 -61.461 -0.691381 -0.0399815 65.8451 4.78688 -24.5199 -1.45104 -0.315734 5.8881 -22.6748 -3.88943 
50.1028 74.4369 -44.403 -0.286983 -3.82777 134.411 0 0 0 5.69496 39.9972 -1.85849 -3.36134 4.16191 3.08479 5.4403 11.4189 0.764128 -6.00797 -7.79906 3.89432 -26.2474 4.10354 -9.12234 -22.4531 14.8525 -18.397 -7.62004 -20.0246 4.82471 -8.55302 0.245503 -3.29087 27.4904 7.58353 18.8267 31.8794 5.94794 6.33508 3.37077 -16.9965 -3.97144 2.17886 0.14457 7.59734 13.9409 -69.5194 15.5408 0.525073 61.5051 -18.6363 6.72068 11.2864 -0.624686 -0.0882258 -1.88176 0.927389 4.45124 -64.8389 0.582004 -0.254516 86.9594 5.03859 -24.1715 -8.80749 -1.88671 5.8991 -23.5286 -5.97849 
54.6597 69.9586 -48.7609 0.455049 -1.84113 134.331 0 0 0 4.43023 39.9083 -1.54743 -3.47753 6.35191 1.9671 6.42769 6.99635 1.1747 -4.93644 -8.00336 4.27873 -25.496 4.47505 -10.5581 -18.7668 12.9587 -35.5797 -8.31446 -18.9906 4.78576 -8.58228 0.29329 -3.94761 26.8926 7.90441 20.133 25.9454 3.03473 21.7303 3.41143 -14.5728 -1.52767 1.52839 0.103314 7.83182 11.8848 -74.208 12.4471 -1.18532 82.1919 -13.2563 12.3433 -5.15012 0.519598 -0.41985 -2.53841 2.68562 1.29253 -65.7083 -2.27358 -179.901 78.631 -175.796 -23.3235 -14.1216 -2.93747 7.08852 -28.1971 -5.20607 
58.1752 67.2585 -51.5334 0.702332 1.47899 136.492 0 0 0 4.12487 39.8841 -1.69567 -4.48069 9.89266 1.788 5.81587 3.34323 1.18233 -2.98148 -7.31609 3.5815 -23.4012 4.69682 -12.2383 -16.6402 5.39317 -56.1133 -7.71787 -16.1409 4.71978 -7.12864 0.344459 -5.51166 22.8309 6.76317 19.387 21.7165 -1.63261 39.5136 3.09707 -11.2867 -0.0890625 0.258371 0.0255457 7.84457 6.60354 -73.5352 8.94972 179.863 88.7633 163.984 15.122 -12.1753 1.61253 -1.11821 -1.71098 5.4033 -5.29602 -62.8504 -7.00431 179.918 69.7356 -176.021 -22.0008 -21.096 -4.11378 7.67289 -28.8763 -2.47738 
61.1936 66.0727 -54.0985 0.104576 1.28425 136.366 0 0 0 5.40853 38.624 -1.46388 -6.3912 10.4781 2.82093 4.30958 1.4849 0.373156 -3.43552 -8.15832 2.25437 -18.3055 4.37623 -13.9718 -22.0953 -3.0666 -71.8332 -4.1162 -9.36459 4.68193 -6.42733 0.339637 -5.98371 16.6232 5.11681 18.2173 17.7039 -7.91892 55.0992 3.003 -13.1556 0.927494 -1.7155 -0.0960247 6.98275 14.3801 -73.5399 18.1144 179.954 82.5348 162.449 17.4972 -16.8617 2.60646 -0.795476 -1.01738 3.68019 -3.60069 -61.6898 -3.79343 -179.959 65.2989 -175.415 -17.1173 -25.4129 -3.91197 8.08395 -28.87 0.413423 
64.2308 66.1475 -56.041 -1.78867 1.31676 138.124 0 0 0 4.70997 38.1731 -1.33237 -6.51338 8.83831 2.78685 2.82287 0.693648 -0.58275 -2.88735 -10.3399 0.680623 -13.3119 4.01589 -16.0582 -23.5847 -7.8173 -85.7984 -3.23908 -8.36952 4.40613 -5.13446 0.233462 -5.22072 9.46108 3.65043 17.8762 17.9171 -17.6315 66.0548 1.60962 -11.514 1.09036 0.821602 0.0617156 9.22038 14.3296 -73.3763 20.4617 179.979 79.5742 161.3 20.4477 -17.683 3.20739 -0.702072 -4.0081 4.64703 -2.85862 -60.5769 -1.47822 179.995 63.3221 -177.362 -15.1457 -24.5823 -3.3187 10.1202 -34.587 1.60659 
67.2939 67.6396 -57.9084 -2.81058 1.83379 140.93 0 0 0 5.53795 39.0839 -2.26256 -7.37734 6.39716 2.08428 3.75201 1.67703 -1.54564 -2.43821 -12.7174 -0.0878929 -7.74566 3.08455 -16.3968 -24.4961 -12.5821 -97.2745 -1.96291 -10.0949 1.49143 -5.62222 0.312557 -6.37283 2.52286 2.01594 15.1926 20.9705 -25.9901 74.7052 0.228911 -12.0408 0.928273 -0.0507477 -0.00375372 9.3805 8.60045 -70.794 15.3512 179.973 79.2072 160.401 20.4672 -20.0346 3.65306 -0.206214 -3.28238 1.97876 -3.73925 -55.8573 -2.38678 179.971 64.2852 179.979 -15.0105 -26.2882 -3.51729 10.927 -36.7384 2.03689 
70.3286 70.2507 -59.892 -4.93938 1.1418 142.751 0 0 0 6.21695 37.6491 -2.6912 -9.84468 4.49471 2.16062 7.55108 2.68561 -2.95009 -4.13401 -12.8356 -0.0434783 0.331478 1.57197 -15.6209 -27.2993 -17.0507 -104.23 -1.12142 -11.4024 -4.89658 -6.25881 0.346259 -6.36077 -1.94237 0.947176 10.4465 22.1689 -31.3402 79.5284 0.119132 -16.8168 2.21571 -0.143907 -0.0120964 10.0515 6.58593 -68.0424 14.5524 179.994 81.3093 158.463 22.3154 -19.5592 3.89586 -0.0595239 -5.36934 2.11764 -3.76812 -51.9989 -2.3008 179.993 67.922 177.403 -13.5556 -27.2281 -3.29247 11.7418 -37.9226 3.60366 
73.6729 73.8245 -62.2214 -6.45547 0.600276 143.327 0 0 0 4.33515 37.1143 -1.32646 -8.457 1.03865 2.23066 6.87456 7.06805 -3.70352 -3.59706 -14.9606 -0.935604 3.65457 0.936228 -14.0855 -28.5235 -21.028 -107.751 -1.15386 -10.3231 -10.521 -5.61682 0.360511 -7.34379 -8.43166 0.119364 7.52083 23.0399 -34.1499 80.0874 -0.114067 -15.4352 3.26434 -0.956806 -0.0812324 9.67048 7.45503 -63.4711 16.526 179.927 84.6682 156.655 20.7007 -19.0605 3.51291 0.234921 -5.76157 0.735223 -2.7097 -48.8316 -1.61502 179.987 72.7802 175.97 -15.2425 -20.6778 -2.78543 13.113 -42.2598 2.97686 
